<?xml version="1.0" encoding="UTF-8" standalone="no"?>
<!-- Created with Inkscape (http://www.inkscape.org/) -->

<svg
   xmlns:dc="http://purl.org/dc/elements/1.1/"
   xmlns:cc="http://creativecommons.org/ns#"
   xmlns:rdf="http://www.w3.org/1999/02/22-rdf-syntax-ns#"
   xmlns:svg="http://www.w3.org/2000/svg"
   xmlns="http://www.w3.org/2000/svg"
   xmlns:xlink="http://www.w3.org/1999/xlink"
   xmlns:sodipodi="http://sodipodi.sourceforge.net/DTD/sodipodi-0.dtd"
   xmlns:inkscape="http://www.inkscape.org/namespaces/inkscape"
   width="744.09448819"
   height="1052.3622047"
   id="svg2"
   version="1.1"
   inkscape:version="0.48.2 r9819"
   sodipodi:docname="shuffle.svg"
   inkscape:export-filename="C:\zWork\_git\mibalan-testing\webkit-contributors-demos\img\shuffle.png"
   inkscape:export-xdpi="31.77"
   inkscape:export-ydpi="31.77">
  <defs
     id="defs4">
    <linearGradient
       id="linearGradient3790">
      <stop
         style="stop-color:#ffffff;stop-opacity:1;"
         offset="0"
         id="stop3792" />
      <stop
         id="stop3798"
         offset="0.5"
         style="stop-color:#87a9d3;stop-opacity:1;" />
      <stop
         style="stop-color:#3465a4;stop-opacity:1;"
         offset="1"
         id="stop3794" />
    </linearGradient>
    <marker
       inkscape:stockid="TriangleOutS"
       orient="auto"
       refY="0.0"
       refX="0.0"
       id="TriangleOutS"
       style="overflow:visible">
      <path
         id="path3911"
         d="M 5.77,0.0 L -2.88,5.0 L -2.88,-5.0 L 5.77,0.0 z "
         style="fill-rule:evenodd;stroke:#000000;stroke-width:1.0pt;marker-start:none"
         transform="scale(0.2)" />
    </marker>
    <marker
       inkscape:stockid="Arrow2Lend"
       orient="auto"
       refY="0.0"
       refX="0.0"
       id="Arrow2Lend"
       style="overflow:visible;">
      <path
         id="path3783"
         style="font-size:12.0;fill-rule:evenodd;stroke-width:0.62500000;stroke-linejoin:round;"
         d="M 8.7185878,4.0337352 L -2.2072895,0.016013256 L 8.7185884,-4.0017078 C 6.9730900,-1.6296469 6.9831476,1.6157441 8.7185878,4.0337352 z "
         transform="scale(1.1) rotate(180) translate(1,0)" />
    </marker>
    <marker
       inkscape:stockid="Arrow1Send"
       orient="auto"
       refY="0.0"
       refX="0.0"
       id="Arrow1Send"
       style="overflow:visible;">
      <path
         id="path3777"
         d="M 0.0,0.0 L 5.0,-5.0 L -12.5,0.0 L 5.0,5.0 L 0.0,0.0 z "
         style="fill-rule:evenodd;stroke:#000000;stroke-width:1.0pt;marker-start:none;"
         transform="scale(0.2) rotate(180) translate(6,0)" />
    </marker>
    <radialGradient
       inkscape:collect="always"
       xlink:href="#linearGradient3790"
       id="radialGradient3796"
       cx="221.99489"
       cy="3.2911186"
       fx="221.99489"
       fy="3.2911186"
       r="97.451908"
       gradientUnits="userSpaceOnUse" />
  </defs>
  <sodipodi:namedview
     id="base"
     pagecolor="#ffffff"
     bordercolor="#666666"
     borderopacity="1.0"
     inkscape:pageopacity="0.0"
     inkscape:pageshadow="2"
     inkscape:zoom="1.4"
     inkscape:cx="246.48361"
     inkscape:cy="951.99158"
     inkscape:document-units="px"
     inkscape:current-layer="layer1"
     showgrid="true"
     inkscape:window-width="1555"
     inkscape:window-height="927"
     inkscape:window-x="93"
     inkscape:window-y="2"
     inkscape:window-maximized="0"
     showguides="true"
     inkscape:guide-bbox="true">
    <inkscape:grid
       type="xygrid"
       id="grid2985" />
  </sodipodi:namedview>
  <metadata
     id="metadata7">
    <rdf:RDF>
      <cc:Work
         rdf:about="">
        <dc:format>image/svg+xml</dc:format>
        <dc:type
           rdf:resource="http://purl.org/dc/dcmitype/StillImage" />
        <dc:title />
      </cc:Work>
    </rdf:RDF>
  </metadata>
  <g
     inkscape:label="Layer 1"
     inkscape:groupmode="layer"
     id="layer1">
    <rect
       style="fill:#ffffff;stroke:#1a1a1a;stroke-width:14.17322835000000000;stroke-linecap:butt;stroke-miterlimit:4;stroke-opacity:1;stroke-dasharray:none"
       id="rect5155"
       width="121.78571"
       height="121.78571"
       x="55"
       y="52.362183"
       rx="20.91415"
       ry="20.91415"
       inkscape:export-xdpi="44.689999"
       inkscape:export-ydpi="44.689999" />
    <g
       id="g5147"
       style="stroke:none"
       transform="translate(1.9911424,10.892858)">
      <g
         id="g5131"
         style="stroke:none">
        <path
           inkscape:connector-curvature="0"
           id="path5127"
           d="m 130,78.375 c -6.33333,0 -11.36472,3.400165 -14.9375,7.6875 -3.57278,4.287335 -6.125,9.5 -8.625,14.5 -2.5,5 -4.94778,9.78734 -7.625,13 -2.677221,3.21266 -5.145833,4.8125 -8.8125,4.8125 l -25,0 0,8 25,0 c 6.333333,0 11.36472,-3.40017 14.9375,-7.6875 3.57278,-4.28733 6.125,-9.53125 8.625,-14.53125 2.5,-5 4.94778,-9.756085 7.625,-12.96875 2.67722,-3.212665 5.14583,-4.8125 8.8125,-4.8125 l 25,0 0,-8 -25,0 z"
           style="font-size:medium;font-style:normal;font-variant:normal;font-weight:normal;font-stretch:normal;text-indent:0;text-align:start;text-decoration:none;line-height:normal;letter-spacing:normal;word-spacing:normal;text-transform:none;direction:ltr;block-progression:tb;writing-mode:lr-tb;text-anchor:start;baseline-shift:baseline;color:#000000;fill:#000000;fill-opacity:1;stroke:none;stroke-width:0.99921262;marker:none;visibility:visible;display:inline;overflow:visible;enable-background:accumulate;font-family:Sans;-inkscape-font-specification:Sans" />
        <path
           inkscape:connector-curvature="0"
           id="path5137"
           d="m 164.232,82.362183 -17.84,12 0,-24 z"
           style="fill-rule:evenodd;stroke:none;stroke-width:0.99921262;marker-start:none"
           sodipodi:nodetypes="cccc" />
      </g>
      <g
         id="g5139"
         style="stroke:none">
        <path
           style="font-size:medium;font-style:normal;font-variant:normal;font-weight:normal;font-stretch:normal;text-indent:0;text-align:start;text-decoration:none;line-height:normal;letter-spacing:normal;word-spacing:normal;text-transform:none;direction:ltr;block-progression:tb;writing-mode:lr-tb;text-anchor:start;baseline-shift:baseline;color:#000000;fill:#000000;fill-opacity:1;stroke:#ffffff;stroke-width:7.08661413;stroke-miterlimit:4;stroke-opacity:1;stroke-dasharray:none;marker:none;visibility:visible;display:inline;overflow:visible;enable-background:accumulate;font-family:Sans;-inkscape-font-specification:Sans"
           d="m 65,78.375 0,8 25,0 c 3.666667,0 6.135279,1.599835 8.8125,4.8125 2.67722,3.212665 5.125,7.96875 7.625,12.96875 2.5,5 5.05222,10.24392 8.625,14.53125 3.57278,4.28733 8.60417,7.6875 14.9375,7.6875 l 25,0 0,-8 -25,0 c -3.66667,0 -6.13528,-1.59984 -8.8125,-4.8125 -2.67722,-3.21266 -5.125,-8 -7.625,-13 -2.5,-5 -5.05222,-10.212665 -8.625,-14.5 C 101.36472,81.775165 96.333333,78.375 90,78.375 l -25,0 z"
           id="path5157"
           inkscape:connector-curvature="0" />
        <path
           inkscape:connector-curvature="0"
           id="path2989"
           d="m 65,78.375 0,8 25,0 c 3.666667,0 6.135279,1.599835 8.8125,4.8125 2.67722,3.212665 5.125,7.96875 7.625,12.96875 2.5,5 5.05222,10.24392 8.625,14.53125 3.57278,4.28733 8.60417,7.6875 14.9375,7.6875 l 25,0 0,-8 -25,0 c -3.66667,0 -6.13528,-1.59984 -8.8125,-4.8125 -2.67722,-3.21266 -5.125,-8 -7.625,-13 -2.5,-5 -5.05222,-10.212665 -8.625,-14.5 C 101.36472,81.775165 96.333333,78.375 90,78.375 l -25,0 z"
           style="font-size:medium;font-style:normal;font-variant:normal;font-weight:normal;font-stretch:normal;text-indent:0;text-align:start;text-decoration:none;line-height:normal;letter-spacing:normal;word-spacing:normal;text-transform:none;direction:ltr;block-progression:tb;writing-mode:lr-tb;text-anchor:start;baseline-shift:baseline;color:#000000;fill:#000000;fill-opacity:1;stroke:none;stroke-width:0.99921262;marker:none;visibility:visible;display:inline;overflow:visible;enable-background:accumulate;font-family:Sans;-inkscape-font-specification:Sans" />
        <path
           inkscape:connector-curvature="0"
           id="path5145"
           d="m 164.232,122.36218 -17.84,12 0,-24 z"
           style="fill-rule:evenodd;stroke:none;stroke-width:0.99921262;marker-start:none"
           sodipodi:nodetypes="cccc" />
      </g>
    </g>
    <path
       sodipodi:type="star"
       style="fill:url(#radialGradient3796);fill-opacity:1;stroke:#000000;stroke-width:2;stroke-linecap:butt;stroke-miterlimit:4;stroke-opacity:1;stroke-dasharray:none"
       id="path2998"
       sodipodi:sides="12"
       sodipodi:cx="265"
       sodipodi:cy="42.362183"
       sodipodi:r1="99.247169"
       sodipodi:r2="83.216583"
       sodipodi:arg1="0.7140907"
       sodipodi:arg2="0.97589009"
       inkscape:flatsided="false"
       inkscape:rounded="0"
       inkscape:randomized="0"
       d="m 340,107.36218 -28.36284,3.92006 -14.18525,24.8716 -26.52297,-10.78655 -24.72059,14.4468 L 228.63206,117.21118 200,117.36219 196.07994,88.999344 171.20835,74.814089 181.9949,48.291119 167.54809,23.570531 190.151,5.9942393 190,-22.63782 l 28.36284,-3.920059 14.18525,-24.871593 26.52297,10.78655 24.72059,-14.446804 17.57629,22.602911 L 330,-32.63782 333.92006,-4.274979 358.79165,9.9102764 348.0051,36.433247 362.45191,61.153835 339.849,78.730126 z"
       inkscape:transform-center-x="6.9436839"
       inkscape:transform-center-y="-2.6273276"
       transform="translate(28.005105,59.071064)" />
    <text
       xml:space="preserve"
       style="font-size:40px;font-style:normal;font-weight:normal;line-height:125%;letter-spacing:0px;word-spacing:0px;fill:#ffffff;fill-opacity:1;stroke:#000000;font-family:Sans;stroke-opacity:1;stroke-width:2;stroke-miterlimit:4;stroke-dasharray:none"
       x="158.98521"
       y="235.76762"
       id="text3786"
       sodipodi:linespacing="125%"
       transform="matrix(0.91485136,-0.40379077,0.40379077,0.91485136,0,0)"><tspan
         sodipodi:role="line"
         id="tspan3788"
         x="158.98521"
         y="235.76762"
         style="font-size:72px;font-style:normal;font-variant:normal;font-weight:normal;font-stretch:normal;text-align:start;line-height:125%;writing-mode:lr-tb;text-anchor:start;fill:#ffffff;fill-opacity:1;font-family:Bauhaus 93;-inkscape-font-specification:'Bauhaus 93,';stroke:#000000;stroke-opacity:1;stroke-width:2;stroke-miterlimit:4;stroke-dasharray:none">Mix!</tspan></text>
  </g>
</svg>
